<?xml version="1.0" encoding="iso-8859-1"?>
<!-- Uploaded to: SVG Repo, www.svgrepo.com, Generator: SVG Repo Mixer Tools -->
<svg height="800px" width="800px" version="1.1" id="Layer_1" xmlns="http://www.w3.org/2000/svg" xmlns:xlink="http://www.w3.org/1999/xlink" 
	 viewBox="0 0 512 512" xml:space="preserve">
<path style="fill:#92C9FF;" d="M434.079,256.002c0,19.047-2.987,37.398-8.531,54.608c-17.339,53.895-59.667,96.579-113.335,114.42
	c-17.671,5.877-36.572,9.058-56.218,9.058c-98.352,0-178.086-79.733-178.086-178.086c0-20.868,3.586-40.895,10.183-59.505
	c24.487-69.09,90.419-118.581,167.903-118.581c25.288,0,49.338,5.27,71.121,14.773C390.076,120.146,434.079,182.938,434.079,256.002
	z"/>
<g>
	<path style="fill:#87DFD6;" d="M434.079,256.002c0,19.047-2.987,37.398-8.531,54.608c-12.629-7.391-24.851-18.003-35.293-31.392
		c-9.853-12.635-16.922-26.209-21.121-39.504c-7.512-23.787-23.862-43.619-44.962-56.923c-17.557-11.07-28.513-26.763-28.513-44.164
		c0-18.351,12.191-34.808,31.457-45.938C390.076,120.146,434.079,182.938,434.079,256.002z"/>
	<path style="fill:#87DFD6;" d="M312.211,425.03c-17.704,5.888-36.642,9.07-56.327,9.058
		c-99.083-0.06-178.593-80.145-177.972-179.227c0.128-20.458,3.703-40.094,10.18-58.364c25.087,9.705,52.284,20.52,69.459,27.388
		c10.48,4.192,17.154,14.554,16.643,25.83l-1.166,25.745c-0.558,12.31,7.434,23.383,19.293,26.732l0,0
		c9.316,2.63,16.46,10.125,18.639,19.556l4.114,17.799c2.396,10.367,10.754,18.299,21.232,20.15l49.343,8.718
		c11.285,1.993,20.015,11.009,21.644,22.353L312.211,425.03z"/>
	<path style="fill:#87DFD6;" d="M268.115,282.502c-2.62,1.902-31.912,16.671-31.912,16.671l10.401,18.456l0,0
		c17.201,20.866,46.548,27.057,70.711,14.916l3.405-1.711l1.763-15.788c1.34-12.006-6.728-23.041-18.575-25.405L268.115,282.502z"/>
</g>
<circle style="fill:#DFF5F2;" cx="429.141" cy="82.855" r="22.261"/>
<path d="M66.798,257.602c0.008,0.905,0.014,1.81,0.035,2.712c0.013,0.603,0.036,1.203,0.055,1.805
	c0.033,1.077,0.071,2.153,0.124,3.227c0.018,0.358,0.039,0.716,0.059,1.073c0.073,1.368,0.159,2.735,0.26,4.097
	c0.001,0.018,0.003,0.036,0.004,0.055c3.37,44.956,22.32,86.7,54.292,118.892c35.677,35.923,83.356,55.723,134.253,55.754
	c0.04,0,0.077,0,0.117,0c8.825,0,17.588-0.608,26.245-1.81c0.109-0.014,0.218-0.027,0.327-0.042c3.338-0.47,6.659-1.036,9.963-1.683
	c0.648-0.127,1.294-0.255,1.94-0.387c1.554-0.322,3.103-0.666,4.649-1.026c1.351-0.315,2.699-0.646,4.043-0.991
	c4.224-1.085,8.415-2.307,12.562-3.687c0.002-0.001,0.004-0.001,0.007-0.002c57.006-18.954,102.019-64.399,120.412-121.566
	c3.009-9.337,5.275-18.887,6.79-28.579s2.277-19.529,2.277-29.441c0-15.295-1.841-30.293-5.353-44.737
	c-0.344-1.414-0.709-2.819-1.085-4.222c-1.101-4.109-2.331-8.174-3.7-12.182c-0.466-1.367-0.954-2.725-1.451-4.079
	c-15.932-43.386-47.463-80.105-89.405-102.211c-4.119-2.172-8.339-4.202-12.654-6.083c-0.001,0-0.002,0-0.003-0.001
	c-23.88-10.418-49.305-15.699-75.567-15.699c-79.994,0-151.685,50.633-178.393,125.992c-0.444,1.254-0.875,2.513-1.293,3.774
	c-0.142,0.433-0.276,0.868-0.416,1.301c-0.268,0.83-0.539,1.66-0.795,2.493c-0.17,0.552-0.327,1.107-0.492,1.661
	c-0.213,0.717-0.431,1.431-0.636,2.15c-0.175,0.614-0.337,1.232-0.506,1.849c-0.181,0.662-0.367,1.322-0.541,1.986
	c-0.167,0.64-0.323,1.282-0.483,1.923c-0.161,0.644-0.327,1.288-0.482,1.933c-0.157,0.657-0.302,1.316-0.452,1.975
	c-0.145,0.632-0.293,1.264-0.431,1.898c-0.146,0.67-0.279,1.342-0.417,2.015c-0.129,0.627-0.262,1.253-0.384,1.881
	c-0.131,0.676-0.252,1.355-0.376,2.031c-0.115,0.627-0.234,1.252-0.343,1.881c-0.117,0.677-0.224,1.356-0.333,2.035
	c-0.102,0.633-0.208,1.264-0.304,1.899c-0.102,0.676-0.194,1.353-0.289,2.03c-0.089,0.638-0.183,1.277-0.265,1.916
	c-0.087,0.672-0.165,1.347-0.245,2.021c-0.077,0.649-0.157,1.297-0.227,1.947c-0.072,0.667-0.135,1.335-0.2,2.002
	c-0.065,0.659-0.131,1.317-0.188,1.977c-0.058,0.664-0.107,1.33-0.157,1.996c-0.051,0.664-0.104,1.33-0.148,1.996
	c-0.043,0.661-0.079,1.323-0.116,1.985c-0.038,0.675-0.077,1.35-0.107,2.026c-0.029,0.652-0.05,1.306-0.073,1.959
	c-0.023,0.687-0.049,1.373-0.065,2.061c-0.016,0.649-0.023,1.299-0.032,1.948c-0.007,0.489-0.021,0.977-0.024,1.466
	c-0.001,0.181,0.003,0.362,0.003,0.544c-0.001,0.223-0.007,0.444-0.007,0.667C66.777,256.537,66.792,257.068,66.798,257.602z
	 M89.157,249.83c0.008-0.218,0.012-0.437,0.021-0.654c0.066-1.636,0.159-3.269,0.272-4.9c0.024-0.357,0.052-0.713,0.079-1.071
	c0.122-1.619,0.26-3.237,0.43-4.848c0.003-0.035,0.007-0.07,0.01-0.105c0.174-1.644,0.378-3.281,0.6-4.916
	c0.049-0.358,0.098-0.716,0.148-1.073c0.23-1.619,0.477-3.234,0.756-4.844c0.024-0.145,0.053-0.289,0.079-0.434
	c0.263-1.5,0.55-2.995,0.853-4.487c0.069-0.339,0.137-0.68,0.208-1.02c0.332-1.576,0.683-3.149,1.061-4.714
	c0.067-0.277,0.138-0.552,0.206-0.828c0.343-1.39,0.703-2.776,1.082-4.157c0.056-0.204,0.11-0.407,0.166-0.611
	c21.341,8.32,42.952,16.915,58.289,23.049c6.074,2.43,9.955,8.454,9.659,14.991l-1.166,25.745
	c-0.796,17.565,10.467,33.17,27.388,37.948c5.407,1.527,9.553,5.876,10.819,11.351l4.114,17.799
	c3.407,14.743,15.237,25.972,30.14,28.605l49.344,8.718c6.567,1.16,11.616,6.374,12.563,12.975l3.559,24.786
	c-0.085,0.023-0.169,0.048-0.254,0.07c-1.549,0.419-3.106,0.811-4.667,1.184c-0.319,0.077-0.64,0.15-0.959,0.225
	c-1.587,0.37-3.179,0.721-4.777,1.044c-0.128,0.026-0.257,0.049-0.385,0.075c-1.526,0.304-3.059,0.583-4.595,0.844
	c-0.287,0.049-0.574,0.1-0.863,0.148c-1.575,0.259-3.154,0.495-4.738,0.709c-0.327,0.045-0.654,0.086-0.982,0.128
	c-1.626,0.21-3.257,0.404-4.891,0.567c-0.08,0.008-0.159,0.013-0.239,0.022c-1.588,0.156-3.181,0.283-4.777,0.394
	c-0.308,0.021-0.618,0.045-0.926,0.065c-1.602,0.102-3.206,0.18-4.814,0.237c-0.319,0.011-0.639,0.019-0.959,0.029
	c-1.667,0.049-3.337,0.082-5.011,0.082c-0.001,0-0.002,0-0.004,0c-87.736,0-159.883-68.027-166.466-154.105
	c-0.001-0.012-0.002-0.026-0.003-0.038c-0.091-1.194-0.163-2.394-0.228-3.596c-0.018-0.328-0.038-0.657-0.053-0.986
	c-0.046-0.927-0.077-1.857-0.106-2.787c-0.018-0.552-0.038-1.104-0.05-1.657c-0.018-0.77-0.022-1.543-0.029-2.315
	c-0.006-0.696-0.014-1.39-0.012-2.087c0.001-0.356,0.008-0.712,0.011-1.069C89.07,252.819,89.103,251.323,89.157,249.83z
	 M327.933,105.306c0.067,0.032,0.136,0.061,0.203,0.092c0.731,0.351,1.447,0.725,2.172,1.085c1.093,0.544,2.19,1.081,3.268,1.646
	c0.771,0.405,1.527,0.834,2.291,1.25c1.011,0.551,2.026,1.094,3.022,1.664c0.785,0.449,1.553,0.919,2.328,1.38
	c0.953,0.565,1.911,1.125,2.85,1.709c0.787,0.489,1.556,0.997,2.333,1.498c0.906,0.584,1.818,1.163,2.71,1.763
	c0.778,0.523,1.54,1.065,2.308,1.601c0.87,0.605,1.743,1.208,2.6,1.83c0.765,0.555,1.514,1.126,2.268,1.694
	c0.835,0.628,1.673,1.253,2.495,1.896c0.749,0.587,1.485,1.188,2.223,1.785c0.804,0.65,1.609,1.299,2.4,1.965
	c0.73,0.614,1.446,1.242,2.165,1.868c0.774,0.673,1.548,1.347,2.308,2.034c0.71,0.641,1.407,1.296,2.106,1.949
	c0.743,0.696,1.487,1.391,2.217,2.099c0.689,0.669,1.366,1.348,2.042,2.027c0.715,0.718,1.427,1.436,2.127,2.165
	c0.667,0.693,1.321,1.398,1.974,2.103c0.685,0.738,1.367,1.478,2.038,2.228c0.642,0.718,1.274,1.445,1.903,2.174
	c0.656,0.759,1.309,1.522,1.951,2.293c0.617,0.74,1.223,1.487,1.826,2.237c0.628,0.781,1.251,1.566,1.865,2.359
	c0.59,0.76,1.171,1.528,1.747,2.298c0.6,0.802,1.193,1.608,1.779,2.421c0.562,0.78,1.116,1.566,1.665,2.356
	c0.571,0.824,1.135,1.652,1.692,2.484c0.533,0.799,1.061,1.602,1.581,2.41c0.542,0.843,1.075,1.692,1.602,2.543
	c0.505,0.817,1.005,1.637,1.496,2.463c0.513,0.863,1.015,1.731,1.512,2.602c0.475,0.834,0.947,1.67,1.408,2.511
	c0.483,0.883,0.955,1.772,1.422,2.664c0.444,0.847,0.886,1.695,1.317,2.551c0.454,0.903,0.895,1.813,1.332,2.725
	c0.413,0.86,0.826,1.722,1.224,2.59c0.423,0.922,0.831,1.851,1.239,2.781c0.382,0.874,0.765,1.746,1.132,2.627
	c0.393,0.941,0.768,1.89,1.143,2.838c0.349,0.884,0.702,1.766,1.037,2.657c0.362,0.962,0.705,1.931,1.05,2.901
	c0.316,0.89,0.637,1.78,0.938,2.677c0.331,0.983,0.64,1.975,0.953,2.964c0.283,0.897,0.571,1.792,0.839,2.696
	c0.298,1.003,0.573,2.015,0.853,3.024c0.249,0.902,0.506,1.801,0.74,2.709c0.266,1.027,0.506,2.064,0.754,3.096
	c0.215,0.9,0.437,1.799,0.638,2.705c0.233,1.053,0.437,2.113,0.65,3.172c0.18,0.899,0.371,1.794,0.536,2.698
	c0.198,1.082,0.367,2.172,0.544,3.259c0.145,0.889,0.303,1.775,0.433,2.668c0.165,1.125,0.298,2.258,0.44,3.39
	c0.108,0.864,0.232,1.724,0.326,2.592c0.13,1.193,0.227,2.394,0.333,3.594c0.071,0.814,0.159,1.624,0.219,2.44
	c0.098,1.341,0.158,2.69,0.224,4.038c0.033,0.68,0.085,1.358,0.11,2.04c0.075,2.034,0.114,4.075,0.114,6.122
	c0,1.951-0.046,3.898-0.112,5.841c-0.019,0.539-0.042,1.075-0.066,1.613c-0.07,1.583-0.16,3.162-0.275,4.739
	c-0.029,0.398-0.05,0.797-0.081,1.194c-0.151,1.916-0.338,3.826-0.555,5.731c-0.051,0.453-0.112,0.904-0.168,1.357
	c-0.187,1.533-0.395,3.061-0.626,4.586c-0.076,0.506-0.15,1.014-0.23,1.519c-0.304,1.901-0.632,3.797-1.002,5.683
	c-0.038,0.196-0.083,0.39-0.122,0.584c-0.247,1.241-0.529,2.475-0.805,3.71c-7.199-5.739-13.932-12.562-19.878-20.185
	c-8.698-11.156-15.368-23.609-19.283-36.012c-8.057-25.514-25.687-47.883-49.64-62.986c-15.037-9.481-23.318-21.821-23.318-34.749
	C306.789,126.429,314.424,114.498,327.933,105.306z M255.993,89.046c16.48,0,32.575,2.366,48.072,7.028
	c-12.598,12.151-19.538,26.973-19.538,42.552c0,20.544,12.286,40.073,33.706,53.579c19.504,12.298,33.811,30.36,40.284,50.86
	c4.707,14.904,12.645,29.771,22.959,42.997c8.908,11.422,19.381,21.375,30.644,29.17c-16.123,42.466-49.158,76.728-90.866,94.469
	l-2.946-20.516c-2.317-16.142-14.664-28.894-30.724-31.733l-49.344-8.718c-6.094-1.076-10.931-5.668-12.324-11.696l-4.114-17.799
	c-3.095-13.39-13.234-24.028-26.459-27.761c-6.919-1.953-11.524-8.334-11.199-15.517l1.166-25.745
	c0.725-15.99-8.772-30.725-23.629-36.668c-15.545-6.217-37.519-14.956-59.16-23.39C128.663,129.259,189.028,89.046,255.993,89.046z"
	/>
<path d="M236.909,323.095c0.322,0.57,0.692,1.111,1.109,1.615c13.537,16.421,33.105,25.218,53.15,25.217
	c10.517,0,21.169-2.422,31.145-7.435l3.406-1.711c3.365-1.691,5.648-4.969,6.065-8.712l1.762-15.787
	c1.998-17.889-9.807-34.034-27.46-37.556l-35.793-7.14c-2.958-0.591-6.033,0.047-8.511,1.763
	c-2.424,1.512-17.386,9.228-30.587,15.884c-2.716,1.369-4.753,3.79-5.638,6.699c-0.885,2.909-0.541,6.054,0.952,8.704
	L236.909,323.095z M270.021,294.231l31.709,6.325c6.231,1.243,10.397,6.941,9.691,13.255l-1.086,9.729
	c-18.943,8.459-40.969,3.558-54.541-12.277l-4.183-7.422C259.972,299.581,266.122,296.369,270.021,294.231z"/>
<path d="M458.297,99.116c7.081-12.708,5.239-29.089-5.544-39.873c-10.784-10.784-27.167-12.626-39.875-5.544
	C365.156,16.602,305.937-2.354,245.093,0.234c-64.22,2.721-124.636,29.267-170.118,74.749
	c-41.772,41.772-67.96,97.098-73.74,155.784c-5.701,57.879,8.556,116.435,40.142,164.877c2.134,3.273,5.698,5.052,9.334,5.052
	c2.085,0,4.193-0.584,6.069-1.809c5.149-3.357,6.601-10.253,3.245-15.402C0.089,291.568,12.997,168.443,90.716,90.724
	C174.584,6.853,305.142-1.18,398.149,70.438c-4.798,12.029-2.341,26.304,7.381,36.027c6.51,6.51,15.06,9.765,23.612,9.765
	c4.221,0,8.441-0.797,12.417-2.383c71.618,93.008,63.586,223.56-20.287,307.432c-45.905,45.905-105.561,68.956-165.287,68.955
	c-57.481-0.001-115.023-21.355-160.413-64.234c-4.469-4.221-11.513-4.02-15.734,0.447c-4.222,4.469-4.021,11.513,0.447,15.734
	c47.745,45.106,109.994,69.823,175.652,69.821c1.162,0,2.338-0.008,3.502-0.023c67.07-0.897,130.134-27.518,177.575-74.957
	c45.484-45.485,72.032-105.905,74.749-170.131C514.335,206.053,495.39,146.835,458.297,99.116z M421.27,90.724
	c-4.339-4.34-4.339-11.402,0-15.741c2.103-2.103,4.897-3.26,7.87-3.26c2.973,0,5.769,1.158,7.87,3.26
	c2.103,2.103,3.26,4.897,3.26,7.87s-1.158,5.768-3.26,7.87c-2.103,2.103-4.897,3.26-7.87,3.26
	C426.167,93.984,423.373,92.826,421.27,90.724z"/>
<path d="M77.96,415.144c0.145-0.712,0.223-1.447,0.223-2.17c0-2.927-1.191-5.799-3.262-7.869c-0.512-0.512-1.08-0.979-1.692-1.38
	c-0.601-0.401-1.247-0.746-1.926-1.024c-0.668-0.278-1.368-0.501-2.08-0.634c-1.436-0.289-2.916-0.289-4.341,0
	c-0.712,0.134-1.414,0.356-2.093,0.634c-0.669,0.278-1.313,0.623-1.914,1.024c-0.613,0.401-1.181,0.868-1.693,1.38
	c-0.512,0.512-0.979,1.08-1.38,1.692c-0.4,0.601-0.746,1.247-1.024,1.926c-0.278,0.668-0.501,1.369-0.633,2.081
	c-0.146,0.712-0.223,1.447-0.223,2.17c0,0.723,0.077,1.458,0.223,2.17c0.132,0.712,0.355,1.414,0.633,2.093
	c0.278,0.668,0.624,1.313,1.024,1.914c0.401,0.612,0.868,1.18,1.38,1.692c0.512,0.512,1.08,0.979,1.693,1.38
	c0.601,0.401,1.245,0.746,1.914,1.024c0.679,0.278,1.38,0.501,2.093,0.634c0.712,0.145,1.447,0.223,2.17,0.223
	c0.722,0,1.458-0.078,2.17-0.223c0.712-0.134,1.414-0.356,2.08-0.634c0.679-0.278,1.325-0.623,1.926-1.024
	c0.612-0.401,1.18-0.868,1.692-1.38c0.513-0.512,0.981-1.08,1.38-1.692c0.401-0.601,0.746-1.247,1.024-1.914
	C77.603,416.557,77.826,415.856,77.96,415.144z"/>
</svg>